# xmcd
#
# Track frame offsets: 
#        150
#        20243
#        33403
#        46413
#        62475
#        78408
#        94705
#        102780
#        120513
#        134618
#
# Disc length: 1888 seconds
#
# Revision: 2
# Processed by: cddbd v1.5.2PL0 Copyright (c) Steve Scherf et al.
# Submitted via: ExactAudioCopyFreeDBPlugin 1.0
#
DISCID=7f075e0a
DTITLE=Mike Bloomfield - The Root Of Blues
DYEAR=1994
DGENRE=Blues
TTITLE0=City Girl
TTITLE1=The Train is Gone
TTITLE2=Hey Foreman
TTITLE3=WDIA
TTITLE4=Death Cell Rounder Blues
TTITLE5=Mama Lion
TTITLE6=Thrift Shop Rag
TTITLE7=Death in the Family
TTITLE8=Kansas City
TTITLE9=East Colorado Blues
EXTD=
EXTT0=
EXTT1=
EXTT2=
EXTT3=
EXTT4=
EXTT5=
EXTT6=
EXTT7=
EXTT8=
EXTT9=
PLAYORDER=
